M48
;DRILL file {KiCad no-vcs-found-7591~57~ubuntu14.04.1} date Mon Feb  6 17:28:33 2017
;FORMAT={-:-/ absolute / metric / decimal}
FMAT,2
METRIC,TZ
T1C0.800
T2C1.000
T3C1.001
T4C1.199
T5C1.500
%
G90
G05
M71
T1
X138.Y-118.38
X138.738Y-107.01
X138.738Y-109.55
X138.738Y-112.09
X138.738Y-114.63
X140.238Y-122.26
X145.238Y-122.26
X145.62Y-118.38
X146.358Y-107.01
X146.358Y-109.55
X146.358Y-112.09
X146.358Y-114.63
T2
X142.738Y-76.76
X142.738Y-96.76
T3
X139.488Y-67.76
X145.988Y-67.76
T4
X142.738Y-56.76
X142.738Y-127.26
T5
X138.338Y-82.66
X138.338Y-98.86
T0
M30
