G04 #@! TF.GenerationSoftware,KiCad,Pcbnew,no-vcs-found-7591~57~ubuntu14.04.1*
G04 #@! TF.CreationDate,2017-02-06T18:42:11+02:00*
G04 #@! TF.ProjectId,drawduino,647261776475696E6F2E6B696361645F,rev?*
G04 #@! TF.FileFunction,Copper,L1,Top,Signal*
G04 #@! TF.FilePolarity,Positive*
%FSLAX46Y46*%
G04 Gerber Fmt 4.6, Leading zero omitted, Abs format (unit mm)*
G04 Created by KiCad (PCBNEW no-vcs-found-7591~57~ubuntu14.04.1) date Mon Feb  6 18:42:11 2017*
%MOMM*%
%LPD*%
G01*
G04 APERTURE LIST*
%ADD10C,0.100000*%
%ADD11R,3.000000X3.000000*%
%ADD12C,3.000000*%
%ADD13C,3.500000*%
%ADD14R,0.750000X1.200000*%
%ADD15O,2.400000X1.600000*%
%ADD16R,2.400000X1.600000*%
%ADD17C,3.500120*%
%ADD18O,2.500000X2.500000*%
%ADD19C,2.500000*%
%ADD20R,0.900000X1.200000*%
%ADD21C,0.700000*%
%ADD22C,0.250000*%
%ADD23C,0.254000*%
G04 APERTURE END LIST*
D10*
D11*
X142738112Y-76760000D03*
D12*
X142738112Y-96760000D03*
D13*
X139488112Y-67760000D03*
X145988112Y-67760000D03*
D14*
X138488112Y-102310000D03*
X138488112Y-104210000D03*
D15*
X138738112Y-107010000D03*
X146358112Y-114630000D03*
X138738112Y-109550000D03*
X146358112Y-112090000D03*
X138738112Y-112090000D03*
X146358112Y-109550000D03*
X138738112Y-114630000D03*
D16*
X146358112Y-107010000D03*
D17*
X142738112Y-127260000D03*
X142738112Y-56760000D03*
D18*
X145620000Y-118380354D03*
D19*
X138000000Y-118380354D03*
D20*
X146488112Y-102160000D03*
X146488112Y-104360000D03*
D19*
X145238112Y-122260000D03*
X140238112Y-122260000D03*
D21*
X138488112Y-104210000D02*
X143788112Y-104210000D01*
X143788112Y-104210000D02*
X145838112Y-102160000D01*
X145838112Y-102160000D02*
X146488112Y-102160000D01*
X142488112Y-76760000D02*
X140288112Y-76760000D01*
X140288112Y-76760000D02*
X136988112Y-80060000D01*
X136988112Y-80060000D02*
X136988112Y-103535000D01*
X137663112Y-104210000D02*
X138488112Y-104210000D01*
X136988112Y-103535000D02*
X137663112Y-104210000D01*
X138738112Y-107010000D02*
X138738112Y-104460000D01*
X138738112Y-104460000D02*
X138488112Y-104210000D01*
X138238112Y-106510000D02*
X138738112Y-107010000D01*
X146412820Y-118380354D02*
X145281450Y-118380354D01*
X145281450Y-118380354D02*
X143488112Y-116587016D01*
X140488112Y-107010000D02*
X138738112Y-107010000D01*
X143488112Y-116587016D02*
X143488112Y-110010000D01*
X143488112Y-110010000D02*
X140488112Y-107010000D01*
X140117758Y-118380354D02*
X142238112Y-116260000D01*
X142238112Y-116260000D02*
X142238112Y-110510000D01*
X142238112Y-110510000D02*
X141278112Y-109550000D01*
X140238112Y-122260000D02*
X140238112Y-119825646D01*
X140238112Y-119825646D02*
X138792820Y-118380354D01*
X142738112Y-127260000D02*
X142738112Y-124760000D01*
X142738112Y-124760000D02*
X140238112Y-122260000D01*
X138792820Y-118380354D02*
X140117758Y-118380354D01*
X141278112Y-109550000D02*
X138738112Y-109550000D01*
X138738112Y-114630000D02*
X137288112Y-114630000D01*
X137288112Y-114630000D02*
X135400000Y-112741888D01*
X135400000Y-112741888D02*
X135400000Y-71848112D01*
X135400000Y-71848112D02*
X139488112Y-67760000D01*
D22*
X138738112Y-114630000D02*
X138338112Y-114630000D01*
D21*
X146488112Y-104360000D02*
X146488112Y-106880000D01*
X146488112Y-106880000D02*
X146358112Y-107010000D01*
D23*
G36*
X148798000Y-46757123D02*
X144462449Y-48924899D01*
X144310245Y-49043024D01*
X144150058Y-49150058D01*
X144126064Y-49185967D01*
X144091945Y-49212447D01*
X143996532Y-49379826D01*
X143889497Y-49540015D01*
X143881071Y-49582373D01*
X143859683Y-49619894D01*
X143835586Y-49811041D01*
X143798000Y-50000000D01*
X143798000Y-52500000D01*
X143835586Y-52688959D01*
X143859683Y-52880106D01*
X143881071Y-52917627D01*
X143889497Y-52959985D01*
X143996532Y-53120174D01*
X144091945Y-53287553D01*
X144126064Y-53314033D01*
X144150058Y-53349942D01*
X144310245Y-53456976D01*
X144462449Y-53575101D01*
X148798000Y-55742877D01*
X148798000Y-66975744D01*
X148485462Y-66221213D01*
X148014128Y-66049353D01*
X146303482Y-67760000D01*
X148014128Y-69470647D01*
X148485462Y-69298787D01*
X148798000Y-68457951D01*
X148798000Y-129257123D01*
X144462449Y-131424899D01*
X144310245Y-131543024D01*
X144150058Y-131650058D01*
X144126064Y-131685967D01*
X144091945Y-131712447D01*
X143996532Y-131879826D01*
X143889497Y-132040015D01*
X143881071Y-132082373D01*
X143859683Y-132119894D01*
X143835586Y-132311041D01*
X143798000Y-132500000D01*
X143798000Y-135000000D01*
X143835586Y-135188959D01*
X143859683Y-135380106D01*
X143881071Y-135417627D01*
X143889497Y-135459985D01*
X143996532Y-135620174D01*
X144091945Y-135787553D01*
X144126064Y-135814033D01*
X144150058Y-135849942D01*
X144310245Y-135956976D01*
X144462449Y-136075101D01*
X148798000Y-138242877D01*
X148798000Y-138798000D01*
X136202000Y-138798000D01*
X136202000Y-138242877D01*
X140537551Y-136075101D01*
X140689755Y-135956976D01*
X140849942Y-135849942D01*
X140873936Y-135814033D01*
X140908055Y-135787553D01*
X141003468Y-135620174D01*
X141110503Y-135459985D01*
X141118929Y-135417627D01*
X141140317Y-135380106D01*
X141164414Y-135188959D01*
X141202000Y-135000000D01*
X141202000Y-132500000D01*
X141164414Y-132311041D01*
X141140317Y-132119894D01*
X141118929Y-132082373D01*
X141110503Y-132040015D01*
X141003468Y-131879826D01*
X140908055Y-131712447D01*
X140873936Y-131685967D01*
X140849942Y-131650058D01*
X140689755Y-131543024D01*
X140537551Y-131424899D01*
X136202000Y-129257124D01*
X136202000Y-119943735D01*
X136651780Y-120394301D01*
X137525111Y-120756940D01*
X138378529Y-120757685D01*
X138224165Y-120911780D01*
X137861526Y-121785111D01*
X137860700Y-122730740D01*
X138221815Y-123604703D01*
X138889892Y-124273947D01*
X139763223Y-124636586D01*
X140526571Y-124637253D01*
X140909505Y-125020187D01*
X140300481Y-125628149D01*
X139861552Y-126685207D01*
X139860554Y-127829772D01*
X140297637Y-128887595D01*
X141106261Y-129697631D01*
X142163319Y-130136560D01*
X143307884Y-130137558D01*
X144365707Y-129700475D01*
X145175743Y-128891851D01*
X145614672Y-127834793D01*
X145615670Y-126690228D01*
X145178587Y-125632405D01*
X144369963Y-124822369D01*
X144214693Y-124757895D01*
X144185015Y-124608691D01*
X144142261Y-124393752D01*
X144891579Y-124658667D01*
X145835888Y-124608691D01*
X146476196Y-124343467D01*
X146586690Y-123923947D01*
X145238112Y-122575370D01*
X145223970Y-122589512D01*
X144908600Y-122274142D01*
X144922742Y-122260000D01*
X145553482Y-122260000D01*
X146902059Y-123608578D01*
X147321579Y-123498084D01*
X147636779Y-122606533D01*
X147586803Y-121662224D01*
X147321579Y-121021916D01*
X146902059Y-120911422D01*
X145553482Y-122260000D01*
X144922742Y-122260000D01*
X143574165Y-120911422D01*
X143154645Y-121021916D01*
X142839445Y-121913467D01*
X142887451Y-122820545D01*
X142614861Y-122547955D01*
X142615524Y-121789260D01*
X142254409Y-120915297D01*
X141715112Y-120375058D01*
X141715112Y-119825651D01*
X141715113Y-119825646D01*
X141602682Y-119260423D01*
X141492052Y-119094854D01*
X142699604Y-117887302D01*
X143197370Y-118385068D01*
X143377370Y-119289993D01*
X143892639Y-120061147D01*
X144040338Y-120159836D01*
X144000028Y-120176533D01*
X143889534Y-120596053D01*
X145238112Y-121944630D01*
X146586690Y-120596053D01*
X146580723Y-120573398D01*
X147347361Y-120061147D01*
X147862630Y-119289993D01*
X148043568Y-118380354D01*
X147862630Y-117470715D01*
X147347361Y-116699561D01*
X147078002Y-116519581D01*
X147619381Y-116374220D01*
X148221305Y-115911856D01*
X148600471Y-115254341D01*
X148613715Y-115149678D01*
X148388179Y-114853000D01*
X146581112Y-114853000D01*
X146581112Y-114873000D01*
X146135112Y-114873000D01*
X146135112Y-114853000D01*
X146115112Y-114853000D01*
X146115112Y-114407000D01*
X146135112Y-114407000D01*
X146135112Y-114387000D01*
X146581112Y-114387000D01*
X146581112Y-114407000D01*
X148388179Y-114407000D01*
X148613715Y-114110322D01*
X148600471Y-114005659D01*
X148228153Y-113360019D01*
X148584017Y-112827431D01*
X148730701Y-112090000D01*
X148584017Y-111352569D01*
X148228166Y-110820000D01*
X148584017Y-110287431D01*
X148730701Y-109550000D01*
X148584017Y-108812569D01*
X148413833Y-108557870D01*
X148619723Y-108249733D01*
X148707191Y-107810000D01*
X148707191Y-106210000D01*
X148619723Y-105770267D01*
X148370634Y-105397478D01*
X148043633Y-105178983D01*
X148087191Y-104960000D01*
X148087191Y-103760000D01*
X147999723Y-103320267D01*
X147959454Y-103260000D01*
X147999723Y-103199733D01*
X148087191Y-102760000D01*
X148087191Y-101560000D01*
X147999723Y-101120267D01*
X147750634Y-100747478D01*
X147377845Y-100498389D01*
X146938112Y-100410921D01*
X146038112Y-100410921D01*
X145598379Y-100498389D01*
X145225590Y-100747478D01*
X145129559Y-100891200D01*
X144793715Y-101115603D01*
X143176318Y-102733000D01*
X139908362Y-102733000D01*
X139708362Y-102533000D01*
X139225479Y-102533000D01*
X138863112Y-102460921D01*
X138465112Y-102460921D01*
X138465112Y-102067000D01*
X138675612Y-102067000D01*
X138675612Y-102087000D01*
X139708362Y-102087000D01*
X139990112Y-101805250D01*
X139990112Y-101485826D01*
X139818537Y-101071606D01*
X139501506Y-100754576D01*
X139087286Y-100583000D01*
X139083327Y-100583000D01*
X139399958Y-100452171D01*
X139928428Y-99924624D01*
X140214786Y-99234996D01*
X140215335Y-98605067D01*
X141208414Y-98605067D01*
X141349626Y-99050477D01*
X142331845Y-99407476D01*
X143375915Y-99361420D01*
X144126598Y-99050477D01*
X144267810Y-98605067D01*
X142738112Y-97075370D01*
X141208414Y-98605067D01*
X140215335Y-98605067D01*
X140215437Y-98488280D01*
X139930283Y-97798154D01*
X139402736Y-97269684D01*
X138713108Y-96983326D01*
X138465112Y-96983110D01*
X138465112Y-96353733D01*
X140090636Y-96353733D01*
X140136692Y-97397803D01*
X140447635Y-98148486D01*
X140893045Y-98289698D01*
X142422742Y-96760000D01*
X143053482Y-96760000D01*
X144583179Y-98289698D01*
X145028589Y-98148486D01*
X145385588Y-97166267D01*
X145339532Y-96122197D01*
X145028589Y-95371514D01*
X144583179Y-95230302D01*
X143053482Y-96760000D01*
X142422742Y-96760000D01*
X140893045Y-95230302D01*
X140447635Y-95371514D01*
X140090636Y-96353733D01*
X138465112Y-96353733D01*
X138465112Y-94914933D01*
X141208414Y-94914933D01*
X142738112Y-96444630D01*
X144267810Y-94914933D01*
X144126598Y-94469523D01*
X143144379Y-94112524D01*
X142100309Y-94158580D01*
X141349626Y-94469523D01*
X141208414Y-94914933D01*
X138465112Y-94914933D01*
X138465112Y-84537112D01*
X138709832Y-84537325D01*
X139399958Y-84252171D01*
X139928428Y-83724624D01*
X140214786Y-83034996D01*
X140215437Y-82288280D01*
X139930283Y-81598154D01*
X139402736Y-81069684D01*
X138713108Y-80783326D01*
X138465112Y-80783110D01*
X138465112Y-80671794D01*
X140280911Y-78855995D01*
X140425590Y-79072522D01*
X140798379Y-79321611D01*
X141238112Y-79409079D01*
X144238112Y-79409079D01*
X144677845Y-79321611D01*
X145050634Y-79072522D01*
X145299723Y-78699733D01*
X145387191Y-78260000D01*
X145387191Y-75260000D01*
X145299723Y-74820267D01*
X145050634Y-74447478D01*
X144677845Y-74198389D01*
X144238112Y-74110921D01*
X141238112Y-74110921D01*
X140798379Y-74198389D01*
X140425590Y-74447478D01*
X140176501Y-74820267D01*
X140089033Y-75260000D01*
X140089033Y-75322599D01*
X139722888Y-75395430D01*
X139243715Y-75715603D01*
X137215112Y-77744206D01*
X137215112Y-72121794D01*
X138762879Y-70574027D01*
X138913331Y-70636500D01*
X140057872Y-70637499D01*
X141115673Y-70200424D01*
X141530805Y-69786016D01*
X144277465Y-69786016D01*
X144449325Y-70257350D01*
X145522152Y-70656119D01*
X146665918Y-70613981D01*
X147526899Y-70257350D01*
X147698759Y-69786016D01*
X145988112Y-68075370D01*
X144277465Y-69786016D01*
X141530805Y-69786016D01*
X141925692Y-69391818D01*
X142364612Y-68334781D01*
X142365520Y-67294040D01*
X143091993Y-67294040D01*
X143134131Y-68437806D01*
X143490762Y-69298787D01*
X143962096Y-69470647D01*
X145672742Y-67760000D01*
X143962096Y-66049353D01*
X143490762Y-66221213D01*
X143091993Y-67294040D01*
X142365520Y-67294040D01*
X142365611Y-67190240D01*
X141928536Y-66132439D01*
X141530777Y-65733984D01*
X144277465Y-65733984D01*
X145988112Y-67444630D01*
X147698759Y-65733984D01*
X147526899Y-65262650D01*
X146454072Y-64863881D01*
X145310306Y-64906019D01*
X144449325Y-65262650D01*
X144277465Y-65733984D01*
X141530777Y-65733984D01*
X141119930Y-65322420D01*
X140062893Y-64883500D01*
X138918352Y-64882501D01*
X137860551Y-65319576D01*
X137050532Y-66128182D01*
X136611612Y-67185219D01*
X136610613Y-68329760D01*
X136674629Y-68484689D01*
X136202000Y-68957318D01*
X136202000Y-58786060D01*
X141027422Y-58786060D01*
X141199289Y-59257399D01*
X142272137Y-59656178D01*
X143415927Y-59614041D01*
X144276935Y-59257399D01*
X144448802Y-58786060D01*
X142738112Y-57075370D01*
X141027422Y-58786060D01*
X136202000Y-58786060D01*
X136202000Y-56294025D01*
X139841934Y-56294025D01*
X139884071Y-57437815D01*
X140240713Y-58298823D01*
X140712052Y-58470690D01*
X142422742Y-56760000D01*
X143053482Y-56760000D01*
X144764172Y-58470690D01*
X145235511Y-58298823D01*
X145634290Y-57225975D01*
X145592153Y-56082185D01*
X145235511Y-55221177D01*
X144764172Y-55049310D01*
X143053482Y-56760000D01*
X142422742Y-56760000D01*
X140712052Y-55049310D01*
X140240713Y-55221177D01*
X139841934Y-56294025D01*
X136202000Y-56294025D01*
X136202000Y-55742877D01*
X138219873Y-54733940D01*
X141027422Y-54733940D01*
X142738112Y-56444630D01*
X144448802Y-54733940D01*
X144276935Y-54262601D01*
X143204087Y-53863822D01*
X142060297Y-53905959D01*
X141199289Y-54262601D01*
X141027422Y-54733940D01*
X138219873Y-54733940D01*
X140537551Y-53575101D01*
X140689755Y-53456976D01*
X140849942Y-53349942D01*
X140873936Y-53314033D01*
X140908055Y-53287553D01*
X141003468Y-53120174D01*
X141110503Y-52959985D01*
X141118929Y-52917627D01*
X141140317Y-52880106D01*
X141164414Y-52688959D01*
X141202000Y-52500000D01*
X141202000Y-50000000D01*
X141164414Y-49811041D01*
X141140317Y-49619894D01*
X141118929Y-49582373D01*
X141110503Y-49540015D01*
X141003468Y-49379826D01*
X140908055Y-49212447D01*
X140873936Y-49185967D01*
X140849942Y-49150058D01*
X140689755Y-49043024D01*
X140537551Y-48924899D01*
X136202000Y-46757124D01*
X136202000Y-46202000D01*
X148798000Y-46202000D01*
X148798000Y-46757123D01*
X148798000Y-46757123D01*
G37*
X148798000Y-46757123D02*
X144462449Y-48924899D01*
X144310245Y-49043024D01*
X144150058Y-49150058D01*
X144126064Y-49185967D01*
X144091945Y-49212447D01*
X143996532Y-49379826D01*
X143889497Y-49540015D01*
X143881071Y-49582373D01*
X143859683Y-49619894D01*
X143835586Y-49811041D01*
X143798000Y-50000000D01*
X143798000Y-52500000D01*
X143835586Y-52688959D01*
X143859683Y-52880106D01*
X143881071Y-52917627D01*
X143889497Y-52959985D01*
X143996532Y-53120174D01*
X144091945Y-53287553D01*
X144126064Y-53314033D01*
X144150058Y-53349942D01*
X144310245Y-53456976D01*
X144462449Y-53575101D01*
X148798000Y-55742877D01*
X148798000Y-66975744D01*
X148485462Y-66221213D01*
X148014128Y-66049353D01*
X146303482Y-67760000D01*
X148014128Y-69470647D01*
X148485462Y-69298787D01*
X148798000Y-68457951D01*
X148798000Y-129257123D01*
X144462449Y-131424899D01*
X144310245Y-131543024D01*
X144150058Y-131650058D01*
X144126064Y-131685967D01*
X144091945Y-131712447D01*
X143996532Y-131879826D01*
X143889497Y-132040015D01*
X143881071Y-132082373D01*
X143859683Y-132119894D01*
X143835586Y-132311041D01*
X143798000Y-132500000D01*
X143798000Y-135000000D01*
X143835586Y-135188959D01*
X143859683Y-135380106D01*
X143881071Y-135417627D01*
X143889497Y-135459985D01*
X143996532Y-135620174D01*
X144091945Y-135787553D01*
X144126064Y-135814033D01*
X144150058Y-135849942D01*
X144310245Y-135956976D01*
X144462449Y-136075101D01*
X148798000Y-138242877D01*
X148798000Y-138798000D01*
X136202000Y-138798000D01*
X136202000Y-138242877D01*
X140537551Y-136075101D01*
X140689755Y-135956976D01*
X140849942Y-135849942D01*
X140873936Y-135814033D01*
X140908055Y-135787553D01*
X141003468Y-135620174D01*
X141110503Y-135459985D01*
X141118929Y-135417627D01*
X141140317Y-135380106D01*
X141164414Y-135188959D01*
X141202000Y-135000000D01*
X141202000Y-132500000D01*
X141164414Y-132311041D01*
X141140317Y-132119894D01*
X141118929Y-132082373D01*
X141110503Y-132040015D01*
X141003468Y-131879826D01*
X140908055Y-131712447D01*
X140873936Y-131685967D01*
X140849942Y-131650058D01*
X140689755Y-131543024D01*
X140537551Y-131424899D01*
X136202000Y-129257124D01*
X136202000Y-119943735D01*
X136651780Y-120394301D01*
X137525111Y-120756940D01*
X138378529Y-120757685D01*
X138224165Y-120911780D01*
X137861526Y-121785111D01*
X137860700Y-122730740D01*
X138221815Y-123604703D01*
X138889892Y-124273947D01*
X139763223Y-124636586D01*
X140526571Y-124637253D01*
X140909505Y-125020187D01*
X140300481Y-125628149D01*
X139861552Y-126685207D01*
X139860554Y-127829772D01*
X140297637Y-128887595D01*
X141106261Y-129697631D01*
X142163319Y-130136560D01*
X143307884Y-130137558D01*
X144365707Y-129700475D01*
X145175743Y-128891851D01*
X145614672Y-127834793D01*
X145615670Y-126690228D01*
X145178587Y-125632405D01*
X144369963Y-124822369D01*
X144214693Y-124757895D01*
X144185015Y-124608691D01*
X144142261Y-124393752D01*
X144891579Y-124658667D01*
X145835888Y-124608691D01*
X146476196Y-124343467D01*
X146586690Y-123923947D01*
X145238112Y-122575370D01*
X145223970Y-122589512D01*
X144908600Y-122274142D01*
X144922742Y-122260000D01*
X145553482Y-122260000D01*
X146902059Y-123608578D01*
X147321579Y-123498084D01*
X147636779Y-122606533D01*
X147586803Y-121662224D01*
X147321579Y-121021916D01*
X146902059Y-120911422D01*
X145553482Y-122260000D01*
X144922742Y-122260000D01*
X143574165Y-120911422D01*
X143154645Y-121021916D01*
X142839445Y-121913467D01*
X142887451Y-122820545D01*
X142614861Y-122547955D01*
X142615524Y-121789260D01*
X142254409Y-120915297D01*
X141715112Y-120375058D01*
X141715112Y-119825651D01*
X141715113Y-119825646D01*
X141602682Y-119260423D01*
X141492052Y-119094854D01*
X142699604Y-117887302D01*
X143197370Y-118385068D01*
X143377370Y-119289993D01*
X143892639Y-120061147D01*
X144040338Y-120159836D01*
X144000028Y-120176533D01*
X143889534Y-120596053D01*
X145238112Y-121944630D01*
X146586690Y-120596053D01*
X146580723Y-120573398D01*
X147347361Y-120061147D01*
X147862630Y-119289993D01*
X148043568Y-118380354D01*
X147862630Y-117470715D01*
X147347361Y-116699561D01*
X147078002Y-116519581D01*
X147619381Y-116374220D01*
X148221305Y-115911856D01*
X148600471Y-115254341D01*
X148613715Y-115149678D01*
X148388179Y-114853000D01*
X146581112Y-114853000D01*
X146581112Y-114873000D01*
X146135112Y-114873000D01*
X146135112Y-114853000D01*
X146115112Y-114853000D01*
X146115112Y-114407000D01*
X146135112Y-114407000D01*
X146135112Y-114387000D01*
X146581112Y-114387000D01*
X146581112Y-114407000D01*
X148388179Y-114407000D01*
X148613715Y-114110322D01*
X148600471Y-114005659D01*
X148228153Y-113360019D01*
X148584017Y-112827431D01*
X148730701Y-112090000D01*
X148584017Y-111352569D01*
X148228166Y-110820000D01*
X148584017Y-110287431D01*
X148730701Y-109550000D01*
X148584017Y-108812569D01*
X148413833Y-108557870D01*
X148619723Y-108249733D01*
X148707191Y-107810000D01*
X148707191Y-106210000D01*
X148619723Y-105770267D01*
X148370634Y-105397478D01*
X148043633Y-105178983D01*
X148087191Y-104960000D01*
X148087191Y-103760000D01*
X147999723Y-103320267D01*
X147959454Y-103260000D01*
X147999723Y-103199733D01*
X148087191Y-102760000D01*
X148087191Y-101560000D01*
X147999723Y-101120267D01*
X147750634Y-100747478D01*
X147377845Y-100498389D01*
X146938112Y-100410921D01*
X146038112Y-100410921D01*
X145598379Y-100498389D01*
X145225590Y-100747478D01*
X145129559Y-100891200D01*
X144793715Y-101115603D01*
X143176318Y-102733000D01*
X139908362Y-102733000D01*
X139708362Y-102533000D01*
X139225479Y-102533000D01*
X138863112Y-102460921D01*
X138465112Y-102460921D01*
X138465112Y-102067000D01*
X138675612Y-102067000D01*
X138675612Y-102087000D01*
X139708362Y-102087000D01*
X139990112Y-101805250D01*
X139990112Y-101485826D01*
X139818537Y-101071606D01*
X139501506Y-100754576D01*
X139087286Y-100583000D01*
X139083327Y-100583000D01*
X139399958Y-100452171D01*
X139928428Y-99924624D01*
X140214786Y-99234996D01*
X140215335Y-98605067D01*
X141208414Y-98605067D01*
X141349626Y-99050477D01*
X142331845Y-99407476D01*
X143375915Y-99361420D01*
X144126598Y-99050477D01*
X144267810Y-98605067D01*
X142738112Y-97075370D01*
X141208414Y-98605067D01*
X140215335Y-98605067D01*
X140215437Y-98488280D01*
X139930283Y-97798154D01*
X139402736Y-97269684D01*
X138713108Y-96983326D01*
X138465112Y-96983110D01*
X138465112Y-96353733D01*
X140090636Y-96353733D01*
X140136692Y-97397803D01*
X140447635Y-98148486D01*
X140893045Y-98289698D01*
X142422742Y-96760000D01*
X143053482Y-96760000D01*
X144583179Y-98289698D01*
X145028589Y-98148486D01*
X145385588Y-97166267D01*
X145339532Y-96122197D01*
X145028589Y-95371514D01*
X144583179Y-95230302D01*
X143053482Y-96760000D01*
X142422742Y-96760000D01*
X140893045Y-95230302D01*
X140447635Y-95371514D01*
X140090636Y-96353733D01*
X138465112Y-96353733D01*
X138465112Y-94914933D01*
X141208414Y-94914933D01*
X142738112Y-96444630D01*
X144267810Y-94914933D01*
X144126598Y-94469523D01*
X143144379Y-94112524D01*
X142100309Y-94158580D01*
X141349626Y-94469523D01*
X141208414Y-94914933D01*
X138465112Y-94914933D01*
X138465112Y-84537112D01*
X138709832Y-84537325D01*
X139399958Y-84252171D01*
X139928428Y-83724624D01*
X140214786Y-83034996D01*
X140215437Y-82288280D01*
X139930283Y-81598154D01*
X139402736Y-81069684D01*
X138713108Y-80783326D01*
X138465112Y-80783110D01*
X138465112Y-80671794D01*
X140280911Y-78855995D01*
X140425590Y-79072522D01*
X140798379Y-79321611D01*
X141238112Y-79409079D01*
X144238112Y-79409079D01*
X144677845Y-79321611D01*
X145050634Y-79072522D01*
X145299723Y-78699733D01*
X145387191Y-78260000D01*
X145387191Y-75260000D01*
X145299723Y-74820267D01*
X145050634Y-74447478D01*
X144677845Y-74198389D01*
X144238112Y-74110921D01*
X141238112Y-74110921D01*
X140798379Y-74198389D01*
X140425590Y-74447478D01*
X140176501Y-74820267D01*
X140089033Y-75260000D01*
X140089033Y-75322599D01*
X139722888Y-75395430D01*
X139243715Y-75715603D01*
X137215112Y-77744206D01*
X137215112Y-72121794D01*
X138762879Y-70574027D01*
X138913331Y-70636500D01*
X140057872Y-70637499D01*
X141115673Y-70200424D01*
X141530805Y-69786016D01*
X144277465Y-69786016D01*
X144449325Y-70257350D01*
X145522152Y-70656119D01*
X146665918Y-70613981D01*
X147526899Y-70257350D01*
X147698759Y-69786016D01*
X145988112Y-68075370D01*
X144277465Y-69786016D01*
X141530805Y-69786016D01*
X141925692Y-69391818D01*
X142364612Y-68334781D01*
X142365520Y-67294040D01*
X143091993Y-67294040D01*
X143134131Y-68437806D01*
X143490762Y-69298787D01*
X143962096Y-69470647D01*
X145672742Y-67760000D01*
X143962096Y-66049353D01*
X143490762Y-66221213D01*
X143091993Y-67294040D01*
X142365520Y-67294040D01*
X142365611Y-67190240D01*
X141928536Y-66132439D01*
X141530777Y-65733984D01*
X144277465Y-65733984D01*
X145988112Y-67444630D01*
X147698759Y-65733984D01*
X147526899Y-65262650D01*
X146454072Y-64863881D01*
X145310306Y-64906019D01*
X144449325Y-65262650D01*
X144277465Y-65733984D01*
X141530777Y-65733984D01*
X141119930Y-65322420D01*
X140062893Y-64883500D01*
X138918352Y-64882501D01*
X137860551Y-65319576D01*
X137050532Y-66128182D01*
X136611612Y-67185219D01*
X136610613Y-68329760D01*
X136674629Y-68484689D01*
X136202000Y-68957318D01*
X136202000Y-58786060D01*
X141027422Y-58786060D01*
X141199289Y-59257399D01*
X142272137Y-59656178D01*
X143415927Y-59614041D01*
X144276935Y-59257399D01*
X144448802Y-58786060D01*
X142738112Y-57075370D01*
X141027422Y-58786060D01*
X136202000Y-58786060D01*
X136202000Y-56294025D01*
X139841934Y-56294025D01*
X139884071Y-57437815D01*
X140240713Y-58298823D01*
X140712052Y-58470690D01*
X142422742Y-56760000D01*
X143053482Y-56760000D01*
X144764172Y-58470690D01*
X145235511Y-58298823D01*
X145634290Y-57225975D01*
X145592153Y-56082185D01*
X145235511Y-55221177D01*
X144764172Y-55049310D01*
X143053482Y-56760000D01*
X142422742Y-56760000D01*
X140712052Y-55049310D01*
X140240713Y-55221177D01*
X139841934Y-56294025D01*
X136202000Y-56294025D01*
X136202000Y-55742877D01*
X138219873Y-54733940D01*
X141027422Y-54733940D01*
X142738112Y-56444630D01*
X144448802Y-54733940D01*
X144276935Y-54262601D01*
X143204087Y-53863822D01*
X142060297Y-53905959D01*
X141199289Y-54262601D01*
X141027422Y-54733940D01*
X138219873Y-54733940D01*
X140537551Y-53575101D01*
X140689755Y-53456976D01*
X140849942Y-53349942D01*
X140873936Y-53314033D01*
X140908055Y-53287553D01*
X141003468Y-53120174D01*
X141110503Y-52959985D01*
X141118929Y-52917627D01*
X141140317Y-52880106D01*
X141164414Y-52688959D01*
X141202000Y-52500000D01*
X141202000Y-50000000D01*
X141164414Y-49811041D01*
X141140317Y-49619894D01*
X141118929Y-49582373D01*
X141110503Y-49540015D01*
X141003468Y-49379826D01*
X140908055Y-49212447D01*
X140873936Y-49185967D01*
X140849942Y-49150058D01*
X140689755Y-49043024D01*
X140537551Y-48924899D01*
X136202000Y-46757124D01*
X136202000Y-46202000D01*
X148798000Y-46202000D01*
X148798000Y-46757123D01*
M02*
