G04 #@! TF.GenerationSoftware,KiCad,Pcbnew,no-vcs-found-7591~57~ubuntu14.04.1*
G04 #@! TF.CreationDate,2017-02-06T18:42:11+02:00*
G04 #@! TF.ProjectId,drawduino,647261776475696E6F2E6B696361645F,rev?*
G04 #@! TF.FileFunction,Profile,NP*
%FSLAX46Y46*%
G04 Gerber Fmt 4.6, Leading zero omitted, Abs format (unit mm)*
G04 Created by KiCad (PCBNEW no-vcs-found-7591~57~ubuntu14.04.1) date Mon Feb  6 18:42:11 2017*
%MOMM*%
%LPD*%
G01*
G04 APERTURE LIST*
%ADD10C,0.100000*%
%ADD11C,0.150000*%
G04 APERTURE END LIST*
D10*
D11*
X135000000Y-140000000D02*
X135000000Y-137500000D01*
X150000000Y-140000000D02*
X150000000Y-137500000D01*
X135000000Y-45000000D02*
X135000000Y-47500000D01*
X150000000Y-45000000D02*
X150000000Y-47500000D01*
X145000000Y-132500000D02*
X150000000Y-130000000D01*
X145000000Y-135000000D02*
X145000000Y-132500000D01*
X150000000Y-137500000D02*
X145000000Y-135000000D01*
X135000000Y-140000000D02*
X150000000Y-140000000D01*
X140000000Y-135000000D02*
X135000000Y-137500000D01*
X140000000Y-132500000D02*
X140000000Y-135000000D01*
X135000000Y-130000000D02*
X140000000Y-132500000D01*
X145000000Y-52500000D02*
X150000000Y-55000000D01*
X145000000Y-50000000D02*
X145000000Y-52500000D01*
X150000000Y-47500000D02*
X145000000Y-50000000D01*
X135000000Y-45000000D02*
X150000000Y-45000000D01*
X140000000Y-50000000D02*
X135000000Y-47500000D01*
X140000000Y-52500000D02*
X140000000Y-50000000D01*
X135000000Y-55000000D02*
X140000000Y-52500000D01*
X135000000Y-130000000D02*
X135000000Y-55000000D01*
X150000000Y-55000000D02*
X150000000Y-130000000D01*
M02*
